{"accessors":[{"bufferView":0,"byteOffset":0,"componentType":5126,"count":36,"max":[5,1.5,7],"min":[-5,-1.5,-7],"normalized":false,"type":"VEC3"},{"bufferView":1,"byteOffset":0,"componentType":5126,"count":36,"max":[0,0,0.000076,-1],"min":[-1,-1,-1,-1],"normalized":false,"type":"VEC4"},{"bufferView":2,"byteOffset":0,"componentType":5126,"count":36,"max":[1,1,1],"min":[-1,-1,-1],"normalized":false,"type":"VEC3"},{"bufferView":3,"byteOffset":0,"componentType":5126,"count":36,"max":[1,1],"min":[0,0],"normalized":false,"type":"VEC2"},{"bufferView":4,"byteOffset":0,"componentType":5125,"count":36,"max":[35],"min":[0],"normalized":false,"type":"SCALAR"},{"bufferView":5,"byteOffset":0,"componentType":5126,"count":114,"max":[14,1.5,10.5],"min":[-14,-1.5,-10.5],"normalized":false,"type":"VEC3"},{"bufferView":6,"byteOffset":0,"componentType":5126,"count":114,"max":[0,0,0.000076,1],"min":[-1,-1,-1,-1],"normalized":false,"type":"VEC4"},{"bufferView":7,"byteOffset":0,"componentType":5126,"count":114,"max":[1,1,1],"min":[-1,-1,-1],"normalized":false,"type":"VEC3"},{"bufferView":8,"byteOffset":0,"componentType":5126,"count":114,"max":[1,1],"min":[0,0],"normalized":false,"type":"VEC2"},{"bufferView":9,"byteOffset":0,"componentType":5125,"count":114,"max":[113],"min":[0],"normalized":false,"type":"SCALAR"},{"bufferView":10,"byteOffset":0,"componentType":5126,"count":36,"max":[3,1.5,6],"min":[-3,-1.5,-6],"normalized":false,"type":"VEC3"},{"bufferView":11,"byteOffset":0,"componentType":5126,"count":36,"max":[0,0,0.000076,-1],"min":[-1,-1,-1,-1],"normalized":false,"type":"VEC4"},{"bufferView":12,"byteOffset":0,"componentType":5126,"count":36,"max":[1,1,1],"min":[-1,-1,-1],"normalized":false,"type":"VEC3"},{"bufferView":13,"byteOffset":0,"componentType":5126,"count":36,"max":[1,1],"min":[0,0],"normalized":false,"type":"VEC2"},{"bufferView":14,"byteOffset":0,"componentType":5125,"count":36,"max":[35],"min":[0],"normalized":false,"type":"SCALAR"},{"bufferView":15,"byteOffset":0,"componentType":5126,"count":453,"max":[11.5,1.5,8],"min":[-11.5,-1.5,-8],"normalized":false,"type":"VEC3"},{"bufferView":16,"byteOffset":0,"componentType":5126,"count":453,"max":[0.000102,1,1,1],"min":[-1,-1,-1,-1],"normalized":false,"type":"VEC4"},{"bufferView":17,"byteOffset":0,"componentType":5126,"count":453,"max":[1,1,1],"min":[-1,-1,-1],"normalized":false,"type":"VEC3"},{"bufferView":18,"byteOffset":0,"componentType":5126,"count":453,"max":[1,1],"min":[0,0],"normalized":false,"type":"VEC2"},{"bufferView":19,"byteOffset":0,"componentType":5125,"count":453,"max":[452],"min":[0],"normalized":false,"type":"SCALAR"},{"bufferView":20,"byteOffset":0,"componentType":5126,"count":846,"max":[29,4.5,6],"min":[-38,-1.5,-34],"normalized":false,"type":"VEC3"},{"bufferView":21,"byteOffset":0,"componentType":5126,"count":846,"max":[0.000061,0.00029,1,1],"min":[-1,-1,-1,1],"normalized":false,"type":"VEC4"},{"bufferView":22,"byteOffset":0,"componentType":5126,"count":846,"max":[1,1,1],"min":[-1,-1,-1],"normalized":false,"type":"VEC3"},{"bufferView":23,"byteOffset":0,"componentType":5126,"count":846,"max":[1,1],"min":[0,0],"normalized":false,"type":"VEC2"},{"bufferView":24,"byteOffset":0,"componentType":5125,"count":846,"max":[845],"min":[0],"normalized":false,"type":"SCALAR"}],"asset":{"generator":"Godot Engine v4.2.1.stable.official@b09f793f564a6c95dc76acc654b390e68441bd01","version":"2.0"},"bufferViews":[{"buffer":0,"byteLength":432,"byteOffset":0},{"buffer":0,"byteLength":576,"byteOffset":432},{"buffer":0,"byteLength":432,"byteOffset":1008},{"buffer":0,"byteLength":288,"byteOffset":1440},{"buffer":0,"byteLength":144,"byteOffset":1728},{"buffer":0,"byteLength":1368,"byteOffset":1872},{"buffer":0,"byteLength":1824,"byteOffset":3240},{"buffer":0,"byteLength":1368,"byteOffset":5064},{"buffer":0,"byteLength":912,"byteOffset":6432},{"buffer":0,"byteLength":456,"byteOffset":7344},{"buffer":0,"byteLength":432,"byteOffset":7800},{"buffer":0,"byteLength":576,"byteOffset":8232},{"buffer":0,"byteLength":432,"byteOffset":8808},{"buffer":0,"byteLength":288,"byteOffset":9240},{"buffer":0,"byteLength":144,"byteOffset":9528},{"buffer":0,"byteLength":5436,"byteOffset":9672},{"buffer":0,"byteLength":7248,"byteOffset":15108},{"buffer":0,"byteLength":5436,"byteOffset":22356},{"buffer":0,"byteLength":3624,"byteOffset":27792},{"buffer":0,"byteLength":1812,"byteOffset":31416},{"buffer":0,"byteLength":10152,"byteOffset":33228},{"buffer":0,"byteLength":13536,"byteOffset":43380},{"buffer":0,"byteLength":10152,"byteOffset":56916},{"buffer":0,"byteLength":6768,"byteOffset":67068},{"buffer":0,"byteLength":3384,"byteOffset":73836}],"buffers":[{"byteLength":77220,"uri":"main_level0.bin"}],"extensions":{"KHR_lights_punctual":{"lights":[{"color":[1,1,1],"intensity":1,"range":340282346638528860000000000000000000000,"type":"directional"}]}},"extensionsUsed":["GODOT_single_root","KHR_lights_punctual"],"materials":[{"extensions":{},"pbrMetallicRoughness":{"baseColorFactor":[0.99999988079071,0.99999988079071,0.99999988079071,1],"metallicFactor":0,"roughnessFactor":1}},{"extensions":{},"pbrMetallicRoughness":{"baseColorFactor":[0.99999988079071,0.99999988079071,0.99999988079071,1],"metallicFactor":0,"roughnessFactor":1}},{"extensions":{},"pbrMetallicRoughness":{"baseColorFactor":[0.99999988079071,0.99999988079071,0.99999988079071,1],"metallicFactor":0,"roughnessFactor":1}},{"extensions":{},"pbrMetallicRoughness":{"baseColorFactor":[0.99999988079071,0.99999988079071,0.99999988079071,1],"metallicFactor":0,"roughnessFactor":1}},{"extensions":{},"pbrMetallicRoughness":{"baseColorFactor":[0.99999988079071,0.99999988079071,0.99999988079071,1],"metallicFactor":0,"roughnessFactor":1}}],"meshes":[{"extras":{"targetNames":[]},"primitives":[{"attributes":{"NORMAL":2,"POSITION":0,"TANGENT":1,"TEXCOORD_0":3},"indices":4,"material":0,"mode":4}]},{"extras":{"targetNames":[]},"primitives":[{"attributes":{"NORMAL":7,"POSITION":5,"TANGENT":6,"TEXCOORD_0":8},"indices":9,"material":1,"mode":4}]},{"extras":{"targetNames":[]},"primitives":[{"attributes":{"NORMAL":12,"POSITION":10,"TANGENT":11,"TEXCOORD_0":13},"indices":14,"material":2,"mode":4}]},{"extras":{"targetNames":[]},"primitives":[{"attributes":{"NORMAL":17,"POSITION":15,"TANGENT":16,"TEXCOORD_0":18},"indices":19,"material":3,"mode":4}]},{"extras":{"targetNames":[]},"primitives":[{"attributes":{"NORMAL":22,"POSITION":20,"TANGENT":21,"TEXCOORD_0":23},"indices":24,"material":4,"mode":4}]}],"nodes":[{"children":[1,2,3,4,6,7,11,22],"extensions":{},"name":"MainLevel"},{"extensions":{},"name":"WorldEnvironment"},{"extensions":{"KHR_lights_punctual":{"light":0}},"name":"DirectionalLight3D","rotation":[-0.12941072881222,0.836515307426453,0.482963681221008,0.22414530813694]},{"extensions":{},"mesh":0,"name":"Overhang42","translation":[28.5,1.5,-10]},{"children":[5],"extensions":{},"mesh":1,"name":"Overhang32","translation":[1.5,1.5,-9.5]},{"extensions":{},"name":"Overhang43","translation":[-0.5,0,-0.5]},{"extensions":{},"mesh":2,"name":"Overhang22","translation":[-21.5,1.5,-5]},{"children":[8],"extensions":{},"mesh":3,"name":"Overhang5","translation":[-21,1.5,12]},{"children":[9,10],"extensions":{},"name":"Overhang23","translation":[1.75,0,2.09999847412109]},{"extensions":{},"name":"Corridor7","translation":[13.25,-0.25,0.200000762939453]},{"extensions":{},"name":"Corridor6","rotation":[0,0.70710676908493,0,0.70710676908493],"translation":[-7.25,-0.25,-9.79999923706055]},{"children":[12],"extensions":{},"mesh":4,"name":"Room2","translation":[4.5,1.5,14]},{"children":[13,14,15,16,17,18,19,20,21],"extensions":{},"name":"Union"},{"extensions":{},"name":"Room22","translation":[-25.5,1.5,-2]},{"extensions":{},"name":"Corridor","translation":[-10.5,-0.25,0.299999237060547]},{"extensions":{},"name":"Corridor5","rotation":[0,0.70710676908493,0,0.70710676908493],"translation":[-31,-0.25,-9.70000076293945]},{"extensions":{},"name":"Corridor2","translation":[-12,3,-9.69999980926514]},{"extensions":{},"name":"Corridor3","translation":[-20.5,3,-18.7000007629395]},{"extensions":{},"name":"Corridor4","translation":[14.75,3,-24.3500003814697]},{"extensions":{},"name":"Room3","translation":[-30.5,1.5,-19]},{"extensions":{},"name":"Room4","translation":[-3,1.5,-23.5]},{"extensions":{},"name":"Room5","translation":[24,1.5,-14.5]},{"extensions":{},"name":"Sprite3D","scale":[2.5,2.5,2.5],"translation":[0,0.100000001490116,0]}],"scene":0,"scenes":[{"nodes":[0]}]}